<svg id="sun" xmlns="http://www.w3.org/2000/svg" width="24.798" height="26.613" viewBox="0 0 24.798 26.613">
  <g id="Grupo_41" data-name="Grupo 41" transform="translate(0.014 9.53)">
    <g id="Grupo_40" data-name="Grupo 40">
      <path id="Caminho_13" data-name="Caminho 13" d="M24.646,188.019H19.668c-.218-4.7-3.53-8.3-7.4-8.031-3.562.244-6.405,3.7-6.606,8.031H.688a.512.512,0,0,0,0,1H24.646a.512.512,0,0,0,0-1Zm-18.155,0c.219-3.952,2.917-7.024,6.176-7.03s5.956,3.078,6.175,7.03Z" transform="translate(-0.275 -179.974)" fill="#e6d219"/>
    </g>
  </g>
  <g id="Grupo_43" data-name="Grupo 43" transform="translate(4.971 19.583)">
    <g id="Grupo_42" data-name="Grupo 42">
      <path id="Caminho_14" data-name="Caminho 14" d="M110.319,340.137H96.688a.512.512,0,0,0,0,1h13.631a.512.512,0,0,0,0-1Z" transform="translate(-96.275 -340.137)" fill="#e6d219"/>
    </g>
  </g>
  <g id="Grupo_45" data-name="Grupo 45" transform="translate(6.21 21.592)">
    <g id="Grupo_44" data-name="Grupo 44" transform="translate(0 0)">
      <path id="Caminho_15" data-name="Caminho 15" d="M131.841,372.137H120.688a.512.512,0,0,0,0,1h11.153a.512.512,0,0,0,0-1Z" transform="translate(-120.275 -372.137)" fill="#e6d219"/>
    </g>
  </g>
  <g id="Grupo_47" data-name="Grupo 47" transform="translate(7.449 23.601)">
    <g id="Grupo_46" data-name="Grupo 46" transform="translate(0 0)">
      <path id="Caminho_16" data-name="Caminho 16" d="M153.363,404.137h-8.674a.512.512,0,0,0,0,1h8.674a.512.512,0,0,0,0-1Z" transform="translate(-144.275 -404.137)" fill="#e6d219"/>
    </g>
  </g>
  <g id="Grupo_49" data-name="Grupo 49" transform="translate(9.102 25.609)">
    <g id="Grupo_48" data-name="Grupo 48">
      <path id="Caminho_17" data-name="Caminho 17" d="M182.058,436.137h-5.37a.512.512,0,0,0,0,1h5.37a.512.512,0,0,0,0-1Z" transform="translate(-176.275 -436.137)" fill="#e6d219"/>
    </g>
  </g>
  <g id="Grupo_51" data-name="Grupo 51" transform="translate(0.014 16.068)">
    <g id="Grupo_50" data-name="Grupo 50" transform="translate(0 0)">
      <path id="Caminho_18" data-name="Caminho 18" d="M4.819,284.137H.688a.512.512,0,0,0,0,1H4.819a.512.512,0,0,0,0-1Z" transform="translate(-0.275 -284.137)" fill="#e6d219"/>
    </g>
  </g>
  <g id="Grupo_53" data-name="Grupo 53" transform="translate(0 10.539)">
    <g id="Grupo_52" data-name="Grupo 52" transform="translate(0 0)">
      <path id="Caminho_19" data-name="Caminho 19" d="M5.141,198.093l-.028-.013L.569,196.072a.392.392,0,0,0-.538.276A.544.544,0,0,0,.258,197l.028.012,4.544,2.009a.392.392,0,0,0,.538-.276A.544.544,0,0,0,5.141,198.093Z" transform="translate(0 -196.035)" fill="#e6d219"/>
    </g>
  </g>
  <g id="Grupo_55" data-name="Grupo 55" transform="translate(7.452 3.521)">
    <g id="Grupo_54" data-name="Grupo 54" transform="translate(0 0)">
      <path id="Caminho_20" data-name="Caminho 20" d="M146.348,88.053l-1.239-3.515a.388.388,0,0,0-.545-.254.548.548,0,0,0-.214.65l1.239,3.515a.42.42,0,0,0,.38.3.343.343,0,0,0,.163-.041A.548.548,0,0,0,146.348,88.053Z" transform="translate(-144.318 -84.24)" fill="#e6d219"/>
    </g>
  </g>
  <g id="Grupo_57" data-name="Grupo 57" transform="translate(14.885 3.515)">
    <g id="Grupo_56" data-name="Grupo 56" transform="translate(0 0)">
      <path id="Caminho_21" data-name="Caminho 21" d="M290.089,84.177a.39.39,0,0,0-.542.264l-1.239,3.515a.548.548,0,0,0,.217.659.344.344,0,0,0,.163.041.42.42,0,0,0,.38-.3l1.239-3.515A.548.548,0,0,0,290.089,84.177Z" transform="translate(-288.274 -84.136)" fill="#e6d219"/>
    </g>
  </g>
  <g id="Grupo_59" data-name="Grupo 59" transform="translate(19.428 9.54)">
    <g id="Grupo_58" data-name="Grupo 58">
      <path id="Caminho_22" data-name="Caminho 22" d="M381.582,180.4a.378.378,0,0,0-.561-.2l-4.544,3.013a.562.562,0,0,0-.165.681.409.409,0,0,0,.363.262.355.355,0,0,0,.2-.061l4.544-3.013A.562.562,0,0,0,381.582,180.4Z" transform="translate(-376.263 -180.134)" fill="#e6d219"/>
    </g>
  </g>
  <g id="Grupo_61" data-name="Grupo 61" transform="translate(2.498 4.525)">
    <g id="Grupo_60" data-name="Grupo 60" transform="translate(0 0)">
      <path id="Caminho_23" data-name="Caminho 23" d="M53.2,105.4l-4.131-5.021a.364.364,0,0,0-.584.012.583.583,0,0,0,0,.7l4.131,5.021a.364.364,0,0,0,.584-.012A.583.583,0,0,0,53.2,105.4Z" transform="translate(-48.373 -100.235)" fill="#e6d219"/>
    </g>
  </g>
  <g id="Grupo_63" data-name="Grupo 63" transform="translate(11.993 0)">
    <g id="Grupo_62" data-name="Grupo 62" transform="translate(0 0)">
      <path id="Caminho_24" data-name="Caminho 24" d="M232.688,28.137a.464.464,0,0,0-.413.5v6.528a.421.421,0,1,0,.826,0V28.639A.464.464,0,0,0,232.688,28.137Z" transform="translate(-232.275 -28.137)" fill="#e6d219"/>
    </g>
  </g>
  <g id="Grupo_65" data-name="Grupo 65" transform="translate(17.358 4.519)">
    <g id="Grupo_64" data-name="Grupo 64" transform="translate(0 0)">
      <path id="Caminho_25" data-name="Caminho 25" d="M341.018,100.286a.364.364,0,0,0-.584,0l-4.131,5.021a.581.581,0,0,0-.01.71.364.364,0,0,0,.584.012l.01-.012L341.018,101A.582.582,0,0,0,341.018,100.286Z" transform="translate(-336.177 -100.139)" fill="#e6d219"/>
    </g>
  </g>
  <g id="Grupo_67" data-name="Grupo 67" transform="translate(19.842 16.068)">
    <g id="Grupo_66" data-name="Grupo 66" transform="translate(0 0)">
      <path id="Caminho_26" data-name="Caminho 26" d="M388.819,284.137h-4.131a.512.512,0,0,0,0,1h4.131a.512.512,0,0,0,0-1Z" transform="translate(-384.275 -284.137)" fill="#e6d219"/>
    </g>
  </g>
</svg>
