<svg id="sunset" xmlns="http://www.w3.org/2000/svg" viewBox="0 0 24 24">
  <g id="Grupo_69" data-name="Grupo 69" transform="translate(0 13.852)">
    <g id="Grupo_68" data-name="Grupo 68">
      <rect id="Retângulo_4" data-name="Retângulo 4" width="27" height="0.815" fill="#c4b743"/>
    </g>
  </g>
  <g id="Grupo_71" data-name="Grupo 71" transform="translate(17.1 16.296)">
    <g id="Grupo_70" data-name="Grupo 70">
      <rect id="Retângulo_5" data-name="Retângulo 5" width="5.4" height="0.815" fill="#c4b743"/>
    </g>
  </g>
  <g id="Grupo_73" data-name="Grupo 73" transform="translate(8.55 16.296)">
    <g id="Grupo_72" data-name="Grupo 72">
      <rect id="Retângulo_6" data-name="Retângulo 6" width="7.65" height="0.815" fill="#c4b743"/>
    </g>
  </g>
  <g id="Grupo_75" data-name="Grupo 75" transform="translate(4.5 16.296)">
    <g id="Grupo_74" data-name="Grupo 74">
      <rect id="Retângulo_7" data-name="Retângulo 7" width="3.15" height="0.815" fill="#c4b743"/>
    </g>
  </g>
  <g id="Grupo_77" data-name="Grupo 77" transform="translate(12.15 18.741)">
    <g id="Grupo_76" data-name="Grupo 76">
      <rect id="Retângulo_8" data-name="Retângulo 8" width="8.55" height="0.815" fill="#c4b743"/>
    </g>
  </g>
  <g id="Grupo_79" data-name="Grupo 79" transform="translate(6.3 18.741)">
    <g id="Grupo_78" data-name="Grupo 78">
      <rect id="Retângulo_9" data-name="Retângulo 9" width="4.95" height="0.815" fill="#c4b743"/>
    </g>
  </g>
  <g id="Grupo_81" data-name="Grupo 81" transform="translate(10.35 21.185)">
    <g id="Grupo_80" data-name="Grupo 80">
      <rect id="Retângulo_10" data-name="Retângulo 10" width="9" height="0.815" fill="#c4b743"/>
    </g>
  </g>
  <g id="Grupo_83" data-name="Grupo 83" transform="translate(7.65 21.185)">
    <g id="Grupo_82" data-name="Grupo 82">
      <rect id="Retângulo_11" data-name="Retângulo 11" width="1.8" height="0.815" fill="#c4b743"/>
    </g>
  </g>
  <g id="Grupo_87" data-name="Grupo 87" transform="translate(4.05 2.454)">
    <g id="Grupo_86" data-name="Grupo 86">
      <path id="Caminho_27" data-name="Caminho 27" d="M94.917,56.534c-2.078-4.325-7.656-6.314-12.435-4.433s-6.975,6.932-4.9,11.258l.825-.325a7.022,7.022,0,0,1-.115-5.924,8.1,8.1,0,0,1,4.545-4.262c4.323-1.7,9.37.1,11.251,4.011a7.092,7.092,0,0,1,0,6.175l.825.326A7.84,7.84,0,0,0,94.917,56.534Z" transform="translate(-76.802 -51.391)" fill="#c4b743"/>
    </g>
  </g>
  <g id="Grupo_89" data-name="Grupo 89" transform="translate(0 0)">
    <g id="Grupo_88" data-name="Grupo 88">
      <path id="Caminho_28" data-name="Caminho 28" d="M1.8.647A2.758,2.758,0,0,0,0,0V.815a1.807,1.807,0,0,1,1.216.455l.266.24a.484.484,0,0,0,.636,0l.265-.24A1.807,1.807,0,0,1,3.6.815V0A2.759,2.759,0,0,0,1.8.647Z" transform="translate(0 0)" fill="#fff"/>
    </g>
  </g>
  <g id="Grupo_91" data-name="Grupo 91" transform="translate(1.35 2.852)">
    <g id="Grupo_90" data-name="Grupo 90">
      <path id="Caminho_29" data-name="Caminho 29" d="M27.4,60.38a2.758,2.758,0,0,0-1.8-.647v.815A1.807,1.807,0,0,1,26.816,61l.266.24a.484.484,0,0,0,.636,0l.265-.24a1.807,1.807,0,0,1,1.217-.455v-.815A2.759,2.759,0,0,0,27.4,60.38Z" transform="translate(-25.6 -59.733)" fill="#fff"/>
    </g>
  </g>
  <g id="Grupo_93" data-name="Grupo 93" transform="translate(4.5 0.815)">
    <g id="Grupo_92" data-name="Grupo 92">
      <path id="Caminho_30" data-name="Caminho 30" d="M87.134,17.713a2.758,2.758,0,0,0-1.8-.647v.815a1.807,1.807,0,0,1,1.216.455l.266.24a.484.484,0,0,0,.636,0l.265-.24a1.807,1.807,0,0,1,1.217-.455v-.815A2.758,2.758,0,0,0,87.134,17.713Z" transform="translate(-85.334 -17.066)" fill="#fff"/>
    </g>
  </g>
</svg>
